<svg xmlns="http://www.w3.org/2000/svg" version="1.1" xmlns:xlink="http://www.w3.org/1999/xlink" xmlns:svgjs="http://svgjs.dev/svgjs" width="100%" height="100%" viewBox="0 0 1000 600"><rect width="1000" height="600" x="0" y="0" fill="#fbaf00"/><g><rect width="333.3333333333333" height="333.3333333333333" rx="13.333333333333334" ry="13.333333333333334" y="154.10820130999917" fill="#080a52" transform="matrix(0.9477881355553119,0,0,0.9477881355553118,0,-4.02665773259254)" x="131.885986328125"/><path d="M180.34072255381557 395.57035221089546L180.34072255381557 395.57035221089546Q174.02985385422386 395.57035221089546 165.61536225476826 394.83992759288714Q157.20087065531266 394.08028599015853 148.87403001001806 392.9408235860656Q140.57640634944377 391.7721441972523 134.26553764985206 390.92485164036265L134.26553764985206 390.92485164036265L135.93090577891098 377.046783898205Q142.03725558546037 377.68955756205236 150.1303603529923 378.5368501189419Q158.25268210524462 379.3549256911113 166.14126797973424 379.99769935495857Q174.02985385422386 380.64047301880584 179.49342999692593 380.64047301880584L179.49342999692593 380.64047301880584Q189.8070256032031 380.64047301880584 196.52693208887945 377.572689623171Q203.2468385745558 374.5341232122565 206.6360088021143 368.2232545126648Q209.99596204495248 361.91238581307306 209.99596204495248 352.00782799288055L209.99596204495248 352.00782799288055Q209.99596204495248 344.03159116422995 206.9281786493176 339.2984396395362Q203.88961223840312 334.5652881148424 196.84831892080308 331.73124059697017Q189.8070256032031 328.86797609437764 178.003363776189 326.5598343014714L178.003363776189 326.5598343014714Q166.6671737047002 324.2516925085652 158.25268210524462 321.3007770518116Q149.83819050578902 318.34986159505814 144.14087848532427 313.85044594812706Q138.47278344957988 309.3218133164755 135.72638688586866 302.3681709530366Q133.0092073068778 295.44374557431786 133.0092073068778 285.13014996804077L133.0092073068778 285.13014996804077Q133.0092073068778 271.0183463481204 138.79417028150354 262.39933585562244Q144.57913325612924 253.78032536312455 155.18489870960974 249.77759845643908Q165.81988114781058 245.7748715497536 179.9024677830106 245.7748715497536L179.9024677830106 245.7748715497536Q186.21333648260227 245.7748715497536 194.3064412501342 246.53451315248222Q202.42876300238652 247.26493777049052 210.31734887687614 248.19988128154114Q218.20593475136576 249.1640417773121 223.87402978711015 250.21585322724405L223.87402978711015 250.21585322724405L222.41318055109355 264.29843986244407Q216.3068307445442 263.4511473055544 208.30137693117322 262.72072268754613Q200.3251401025226 261.99029806953786 192.96245995299896 261.3475244056905Q185.59977980347531 260.73396772656355 181.15879812598484 260.73396772656355L181.15879812598484 260.73396772656355Q171.07893839747032 260.73396772656355 164.12529603403132 263.2466284125121Q157.20087065531266 265.7592890984606 153.60718153471183 270.9306953939594Q150.04270939883133 276.0728847047378 150.04270939883133 284.0783385181088L150.04270939883133 284.0783385181088Q150.04270939883133 293.34012267445394 153.51953058055082 298.16092515330877Q156.96713477755 303.0109446168839 164.76806969787862 305.7281241958748Q172.53978763348692 308.47452075958597 185.1615250326703 311.42543621633945L185.1615250326703 311.42543621633945Q196.1178943027948 313.938096902288 204.00648017728443 316.8890123590416Q211.89506605177405 319.8399278157951 217.03725536255246 324.1348245696839Q222.17944467333086 328.45893830829294 224.60445440511845 334.88667494676605Q227.029464136906 341.28519460051876 227.029464136906 350.7514976499063L227.029464136906 350.7514976499063Q227.029464136906 366.7331882919279 221.3613691011616 376.6377461121204Q215.66405708069686 386.5130869475926 205.14594258137737 391.041719579244Q194.62782808205787 395.57035221089546 180.34072255381557 395.57035221089546ZM268.2546295772944 393.67124820407395L252.06842004223046 393.67124820407395L252.06842004223046 288.49010321087894L268.2546295772944 288.49010321087894L268.2546295772944 393.67124820407395ZM268.2546295772944 265.35025131237603L252.06842004223046 265.35025131237603L252.06842004223046 246.4176452136009L268.2546295772944 246.4176452136009L268.2546295772944 265.35025131237603ZM337.4696663797607 395.77487110393776L337.4696663797607 395.77487110393776Q320.84520207389187 395.77487110393776 311.37889902450434 390.19442702235443Q301.9125959751168 384.613982940771 298.0267370073126 372.22598141935026Q294.1408780395085 359.80876291320914 294.1408780395085 339.38609059369713L294.1408780395085 339.38609059369713Q294.1408780395085 320.2489656018798 298.4357747933973 308.5913886984673Q302.7598885320064 296.9045948103345 312.4307104744363 291.6455375606747Q322.1015324168661 286.386480311015 337.67418527280313 286.386480311015L337.67418527280313 286.386480311015Q341.2678743934039 286.386480311015 346.41006370418233 286.91238603598094Q351.5522530149608 287.438291760947 357.04504614238317 288.1687163789552Q362.50862228508527 288.8991409969635 366.5113491917707 289.5419146608108L366.5113491917707 289.5419146608108L365.8685755279234 303.0109446168839Q362.30410339204286 302.5726898460789 357.65860282151016 302.1636520599942Q353.0423192356977 301.7546142739096 348.6305545429276 301.433227441986Q344.18957286543707 301.11184061006225 341.2678743934039 301.11184061006225L341.2678743934039 301.11184061006225Q329.25969367334744 301.11184061006225 322.62743814183216 304.9100486237054Q316.0243995950371 308.67903965262826 313.3948709702072 317.00588029792294Q310.76534234537735 325.3035039584972 310.76534234537735 339.38609059369713L310.76534234537735 339.38609059369713Q310.76534234537735 354.75422455659174 313.07348413828356 363.89914077405564Q315.3816259311898 373.04405699151954 321.89701352382383 377.046783898205Q328.4124011164579 381.04951080489053 341.2678743934039 381.04951080489053L341.2678743934039 381.04951080489053Q344.18957286543707 381.04951080489053 348.71820549708855 380.7281239729669Q353.24683812874 380.40673714104315 357.97998965343373 379.99769935495857Q362.71314117812756 379.5886615688739 366.277613314008 379.3549256911113L366.277613314008 379.3549256911113L366.715868084813 392.8239556471843Q362.50862228508527 393.46672931103154 357.04504614238317 394.08028599015853Q351.5522530149608 394.7230596540059 346.293195765301 395.24896537897183Q341.0341385156412 395.77487110393776 337.4696663797607 395.77487110393776ZM423.07543161033334 395.77487110393776L423.07543161033334 395.77487110393776Q418.2546291314785 395.77487110393776 411.4178547069208 395.1320974400905Q404.58108028236313 394.5185407609635 397.8319568119665 393.5543802651926Q391.11205032629016 392.619436754142 385.85299307663047 391.7721441972523L385.85299307663047 391.7721441972523L386.7002856335201 377.68955756205236Q391.95934288317983 378.30311424117934 398.5915984146951 379.1504067980689Q405.1946369614901 379.99769935495857 411.5055056610819 380.5236050799245Q417.81637436067354 381.04951080489053 421.6145823743167 381.04951080489053L421.6145823743167 381.04951080489053Q430.23359286681455 381.04951080489053 435.9309048872793 379.47179362999253Q441.5989999230237 377.89407645509465 444.5499153797773 374.0958684414515Q447.5008308365308 370.32687741252863 447.5008308365308 363.3732350490897L447.5008308365308 363.3732350490897Q447.5008308365308 358.1141777994299 445.28033999778563 355.16326234267643Q443.05984915904037 352.24156387064323 437.07036729137224 350.3424598638216Q431.0808854237042 348.4433558570001 419.71547836749517 346.74877074322075L419.71547836749517 346.74877074322075Q407.9410335252014 344.8788837211195 400.05244765071177 342.015619218527Q392.1638617762221 339.18157170065484 388.365653762579 333.51347666491046Q384.59666273365616 327.8161646444457 384.59666273365616 317.2980501451262L384.59666273365616 317.2980501451262Q384.59666273365616 305.5236053028324 390.0602388763582 298.80369881715603Q395.5238150190603 292.0545753467594 404.2596934504395 289.22052782888716Q412.9955718818188 286.386480311015 422.46187493120635 286.386480311015L422.46187493120635 286.386480311015Q428.33448885999303 286.386480311015 435.4049991623134 287.0292539748623Q442.4462924799134 287.6428106539893 449.16619896558973 288.60697114976017Q455.91532243598647 289.5419146608108 460.7361249148412 290.38920721770046L460.7361249148412 290.38920721770046L460.3270871287566 304.4717938529004Q455.2725487721391 303.62450129601086 448.55264228646274 302.89407667800253Q441.8035188160661 302.1636520599942 435.08361233038966 301.6377463350283Q428.33448885999303 301.11184061006225 423.3091674880959 301.11184061006225L423.3091674880959 301.11184061006225Q416.99829878850426 301.11184061006225 411.94376043188686 302.48503889191784Q406.88922207526946 303.85823717377355 403.93830661851587 307.2181904166117Q400.9873911617624 310.5781436594499 400.9873911617624 316.6844934659992L400.9873911617624 316.6844934659992Q400.9873911617624 321.3007770518116 403.0910140616263 324.1348245696839Q405.1946369614901 326.9980890722764 411.0964678749972 328.86797609437764Q416.99829878850426 330.76708010119927 428.12996996695074 332.6661841080208L428.12996996695074 332.6661841080208Q441.18996213693913 334.7698070078847 449.0785480114288 337.9252413576806Q456.9671338859183 341.08067570747636 460.5316060217989 346.74877074322075Q464.09607815767936 352.4460827636855 464.09607815767936 362.7596783699627L464.09607815767936 362.7596783699627Q464.09607815767936 374.94316099834117 459.1584077399433 382.21819019370383Q454.2207373222071 389.4640024043461 445.0758211047432 392.619436754142Q435.9309048872793 395.77487110393776 423.07543161033334 395.77487110393776Z " fill="#7ddf64" transform="matrix(0.9477881355553119,0,0,0.9477881355553118,0,-4.02665773259254)"/><path d="M595.8841643262764 395.57035221089546L595.8841643262764 395.57035221089546Q589.5732956266847 395.57035221089546 581.158804027229 394.83992759288714Q572.7443124277735 394.08028599015853 564.4174717824789 392.9408235860656Q556.1198481219046 391.7721441972523 549.8089794223129 390.92485164036265L549.8089794223129 390.92485164036265L551.4743475513718 377.046783898205Q557.5806973579213 377.68955756205236 565.6738021254532 378.5368501189419Q573.7961238777054 379.3549256911113 581.684709752195 379.99769935495857Q589.5732956266847 380.64047301880584 595.0368717693868 380.64047301880584L595.0368717693868 380.64047301880584Q605.3504673756639 380.64047301880584 612.0703738613403 377.572689623171Q618.7902803470166 374.5341232122565 622.1794505745752 368.2232545126648Q625.5394038174134 361.91238581307306 625.5394038174134 352.00782799288055L625.5394038174134 352.00782799288055Q625.5394038174134 344.03159116422995 622.4716204217784 339.2984396395362Q619.433054010864 334.5652881148424 612.3917606932639 331.73124059697017Q605.3504673756639 328.86797609437764 593.5468055486499 326.5598343014714L593.5468055486499 326.5598343014714Q582.210615477161 324.2516925085652 573.7961238777054 321.3007770518116Q565.3816322782498 318.34986159505814 559.6843202577851 313.85044594812706Q554.0162252220407 309.3218133164755 551.2698286583295 302.3681709530366Q548.5526490793386 295.44374557431786 548.5526490793386 285.13014996804077L548.5526490793386 285.13014996804077Q548.5526490793386 271.0183463481204 554.3376120539643 262.39933585562244Q560.1225750285901 253.78032536312455 570.7283404820705 249.77759845643908Q581.3633229202715 245.7748715497536 595.4459095554714 245.7748715497536L595.4459095554714 245.7748715497536Q601.7567782550632 245.7748715497536 609.8498830225951 246.53451315248222Q617.9722047748473 247.26493777049052 625.8607906493369 248.19988128154114Q633.7493765238266 249.1640417773121 639.4174715595709 250.21585322724405L639.4174715595709 250.21585322724405L637.9566223235544 264.29843986244407Q631.850272517005 263.4511473055544 623.844818703634 262.72072268754613Q615.8685818749834 261.99029806953786 608.5059017254598 261.3475244056905Q601.1432215759362 260.73396772656355 596.7022398984457 260.73396772656355L596.7022398984457 260.73396772656355Q586.6223801699311 260.73396772656355 579.6687378064921 263.2466284125121Q572.7443124277735 265.7592890984606 569.1506233071726 270.9306953939594Q565.5861511712922 276.0728847047378 565.5861511712922 284.0783385181088L565.5861511712922 284.0783385181088Q565.5861511712922 293.34012267445394 569.0629723530117 298.16092515330877Q572.5105765500108 303.0109446168839 580.3115114703394 305.7281241958748Q588.0832294059478 308.47452075958597 600.7049668051311 311.42543621633945L600.7049668051311 311.42543621633945Q611.6613360752556 313.938096902288 619.5499219497453 316.8890123590416Q627.4385078242349 319.8399278157951 632.5806971350132 324.1348245696839Q637.7228864457918 328.45893830829294 640.1478961775792 334.88667494676605Q642.5729059093669 341.28519460051876 642.5729059093669 350.7514976499063L642.5729059093669 350.7514976499063Q642.5729059093669 366.7331882919279 636.9048108736224 376.6377461121204Q631.2074988531576 386.5130869475926 620.6893843538382 391.041719579244Q610.1712698545186 395.57035221089546 595.8841643262764 395.57035221089546ZM686.9535056995511 393.67124820407395L670.12452250064 393.67124820407395L670.12452250064 248.31674922042248L686.9535056995511 248.31674922042248L686.9535056995511 393.67124820407395ZM770.2511291372174 395.77487110393776L770.2511291372174 395.77487110393776Q753.8604007091113 395.77487110393776 743.4299371639528 390.92485164036265Q733.0286906035145 386.10404916150793 727.1268596900076 376.6377461121204Q721.2542457612207 367.17144306273286 719.0337549224756 353.2933753205752Q716.8424810684506 339.38609059369713 716.8424810684506 321.3007770518116L716.8424810684506 321.3007770518116Q716.8424810684506 302.8064257238416 719.0337549224756 288.69462210392123Q721.2542457612207 274.6120354687212 727.1268596900076 265.1457324193336Q733.0286906035145 255.67942936994612 743.4299371639528 250.829409906371Q753.8604007091113 246.00860742751624 770.2511291372174 246.00860742751624L770.2511291372174 246.00860742751624Q777.8475451645037 246.00860742751624 785.2978762681884 246.73903204552457Q792.7774243565933 247.46945666353284 799.2928119492275 248.63813605234614Q805.8081995418614 249.77759845643908 810.4537001123941 250.829409906371L810.4537001123941 250.829409906371L809.8109264485469 264.94121352629134Q805.1946428627344 264.0939209694017 798.4455193923378 263.2466284125121Q791.7256129066615 262.39933585562244 784.7719705432224 261.78577917649545Q777.8475451645037 261.1430055126482 772.1502331440389 261.1430055126482L772.1502331440389 261.1430055126482Q760.1712694087029 261.1430055126482 752.6917213202979 264.70747764852865Q745.2413902166132 268.3011667691295 741.2386633099278 275.7514978728142Q737.2359364032424 283.23104596121914 735.7750871672257 294.47958507854696Q734.2850209464888 305.7281241958748 734.2850209464888 321.3007770518116L734.2850209464888 321.3007770518116Q734.2850209464888 336.46439212166393 735.7750871672257 347.71293123899176Q737.2359364032424 358.9614703563196 741.1217953710465 366.20728256696185Q745.0076543388506 373.4823117623245 752.6040703661369 377.046783898205Q760.1712694087029 380.64047301880584 772.3547520370813 380.64047301880584L772.3547520370813 380.64047301880584Q781.2074984073419 380.64047301880584 791.8132638608223 379.47179362999253Q802.4482462990233 378.30311424117934 809.8109264485469 377.046783898205L809.8109264485469 377.046783898205L810.4537001123941 391.36310641116773Q805.3991617557768 392.4149178610996 798.65003828538 393.46672931103154Q791.9301317997036 394.5185407609635 784.56745165018 395.1320974400905Q777.2047715006564 395.77487110393776 770.2511291372174 395.77487110393776ZM876.4840855803444 395.57035221089546L876.4840855803444 395.57035221089546Q870.1732168807526 395.57035221089546 861.758725281297 394.83992759288714Q853.3442336818415 394.08028599015853 845.0466100212672 392.9408235860656Q836.7489863606928 391.7721441972523 830.4381176611013 390.92485164036265L830.4381176611013 390.92485164036265L832.1034857901601 377.046783898205Q838.2098355967095 377.68955756205236 846.3029403642414 378.5368501189419Q854.3960451317733 379.3549256911113 862.2846310062631 379.99769935495857Q870.1732168807526 380.64047301880584 875.666010008175 380.64047301880584L875.666010008175 380.64047301880584Q885.950388629732 380.64047301880584 892.6995121001286 377.572689623171Q899.4194185858049 374.5341232122565 902.7793718286431 368.2232545126648Q906.1685420562015 361.91238581307306 906.1685420562015 352.00782799288055L906.1685420562015 352.00782799288055Q906.1685420562015 344.03159116422995 903.1007586605668 339.2984396395362Q900.0621922496522 334.5652881148424 893.0208989320523 331.73124059697017Q885.950388629732 328.86797609437764 874.1759437874381 326.5598343014714L874.1759437874381 326.5598343014714Q862.810536731229 324.2516925085652 854.3960451317733 321.3007770518116Q845.9815535323179 318.34986159505814 840.3134584965734 313.85044594812706Q834.6453634608291 309.3218133164755 831.8989668971179 302.3681709530366Q829.1525703334067 295.44374557431786 829.1525703334067 285.13014996804077L829.1525703334067 285.13014996804077Q829.1525703334067 271.0183463481204 834.9375333080324 262.39933585562244Q840.722496282658 253.78032536312455 851.3574787208589 249.77759845643908Q861.9924611590596 245.7748715497536 876.0750477942598 245.7748715497536L876.0750477942598 245.7748715497536Q882.3859164938514 245.7748715497536 890.4790212613833 246.53451315248222Q898.5721260289155 247.26493777049052 906.460711903405 248.19988128154114Q914.3492977778945 249.1640417773121 920.0466097983593 250.21585322724405L920.0466097983593 250.21585322724405L918.5565435776224 264.29843986244407Q912.4794107557933 263.4511473055544 904.4739569424224 262.72072268754613Q896.4685031290516 261.99029806953786 889.1058229795277 261.3475244056905Q881.7431428300041 260.73396772656355 877.3313781372341 260.73396772656355L877.3313781372341 260.73396772656355Q867.2515184087196 260.73396772656355 860.2978760452805 263.2466284125121Q853.3442336818415 265.7592890984606 849.7797615459609 270.9306953939594Q846.2152894100806 276.0728847047378 846.2152894100806 284.0783385181088L846.2152894100806 284.0783385181088Q846.2152894100806 293.34012267445394 849.6628936070796 298.16092515330877Q853.1397147887991 303.0109446168839 860.9406497091278 305.7281241958748Q868.712367644736 308.47452075958597 881.3341050439195 311.42543621633945L881.3341050439195 311.42543621633945Q892.2612573293237 313.938096902288 900.1498432038132 316.8890123590416Q908.0384290783028 319.8399278157951 913.2098353738016 324.1348245696839Q918.35202468458 328.45893830829294 920.7770344163677 334.88667494676605Q923.2020441481551 341.28519460051876 923.2020441481551 350.7514976499063L923.2020441481551 350.7514976499063Q923.2020441481551 366.7331882919279 917.5047321276905 376.6377461121204Q911.836637091946 386.5130869475926 901.3185225926267 391.041719579244Q890.800408093307 395.57035221089546 876.4840855803444 395.57035221089546Z " fill="#30362f" transform="matrix(0.9477881355553119,0,0,0.9477881355553118,0,-4.02665773259254)"/></g></svg>